<?xml version="1.0" encoding="UTF-8" standalone="no"?>
<!DOCTYPE svg PUBLIC "-//W3C//DTD SVG 1.1//EN"
 "http://www.w3.org/Graphics/SVG/1.1/DTD/svg11.dtd">
<!-- Generated by graphviz version 14.1.5 (20260411.2331)
 -->
<!-- Pages: 1 -->
<svg width="1135pt" height="128pt"
 viewBox="0.00 0.00 1135.00 128.00" xmlns="http://www.w3.org/2000/svg" xmlns:xlink="http://www.w3.org/1999/xlink">
<g id="graph0" class="graph" transform="scale(1 1) rotate(0) translate(4 124)">
<polygon fill="white" stroke="none" points="-4,4 -4,-124 1131.25,-124 1131.25,4 -4,4"/>
<!-- 3091151461424 -->
<g id="node1" class="node">
<title>3091151461424</title>
<polygon fill="none" stroke="black" points="309.75,-83.5 309.75,-119.5 492.75,-119.5 492.75,-83.5 309.75,-83.5"/>
<text xml:space="preserve" text-anchor="middle" x="320.75" y="-96.7" font-family="Times New Roman,serif" font-size="14.00">c</text>
<polyline fill="none" stroke="black" points="331.75,-84 331.75,-119.5"/>
<text xml:space="preserve" text-anchor="middle" x="371.62" y="-96.7" font-family="Times New Roman,serif" font-size="14.00">data 5.0000</text>
<polyline fill="none" stroke="black" points="411.5,-84 411.5,-119.5"/>
<text xml:space="preserve" text-anchor="middle" x="452.12" y="-96.7" font-family="Times New Roman,serif" font-size="14.00">grad 0.0000</text>
</g>
<!-- 3091165805008+ -->
<g id="node10" class="node">
<title>3091165805008+</title>
<ellipse fill="none" stroke="black" cx="555.75" cy="-73.5" rx="27" ry="18"/>
<text xml:space="preserve" text-anchor="middle" x="555.75" y="-68.45" font-family="Times New Roman,serif" font-size="14.00">+</text>
</g>
<!-- 3091151461424&#45;&gt;3091165805008+ -->
<g id="edge7" class="edge">
<title>3091151461424&#45;&gt;3091165805008+</title>
<path fill="none" stroke="black" d="M493.16,-84.81C501.97,-83.19 510.51,-81.62 518.28,-80.2"/>
<polygon fill="black" stroke="black" points="518.74,-83.67 527.94,-78.42 517.47,-76.79 518.74,-83.67"/>
</g>
<!-- 3091165805632 -->
<g id="node2" class="node">
<title>3091165805632</title>
<polygon fill="none" stroke="black" points="935.25,-27.5 935.25,-63.5 1127.25,-63.5 1127.25,-27.5 935.25,-27.5"/>
<text xml:space="preserve" text-anchor="middle" x="947.38" y="-40.7" font-family="Times New Roman,serif" font-size="14.00">L</text>
<polyline fill="none" stroke="black" points="959.5,-28 959.5,-63.5"/>
<text xml:space="preserve" text-anchor="middle" x="1002.75" y="-40.7" font-family="Times New Roman,serif" font-size="14.00">data 33.0000</text>
<polyline fill="none" stroke="black" points="1046,-28 1046,-63.5"/>
<text xml:space="preserve" text-anchor="middle" x="1086.62" y="-40.7" font-family="Times New Roman,serif" font-size="14.00">grad 0.0000</text>
</g>
<!-- 3091165805632* -->
<g id="node3" class="node">
<title>3091165805632*</title>
<ellipse fill="none" stroke="black" cx="872.25" cy="-45.5" rx="27" ry="18"/>
<text xml:space="preserve" text-anchor="middle" x="872.25" y="-40.45" font-family="Times New Roman,serif" font-size="14.00">*</text>
</g>
<!-- 3091165805632*&#45;&gt;3091165805632 -->
<g id="edge1" class="edge">
<title>3091165805632*&#45;&gt;3091165805632</title>
<path fill="none" stroke="black" d="M899.53,-45.5C906.65,-45.5 914.82,-45.5 923.52,-45.5"/>
<polygon fill="black" stroke="black" points="923.28,-49 933.28,-45.5 923.28,-42 923.28,-49"/>
</g>
<!-- 3091165797520 -->
<g id="node4" class="node">
<title>3091165797520</title>
<polygon fill="none" stroke="black" points="310.88,-28.5 310.88,-64.5 491.62,-64.5 491.62,-28.5 310.88,-28.5"/>
<text xml:space="preserve" text-anchor="middle" x="320.75" y="-41.7" font-family="Times New Roman,serif" font-size="14.00"> </text>
<polyline fill="none" stroke="black" points="330.62,-29 330.62,-64.5"/>
<text xml:space="preserve" text-anchor="middle" x="370.5" y="-41.7" font-family="Times New Roman,serif" font-size="14.00">data 6.0000</text>
<polyline fill="none" stroke="black" points="410.38,-29 410.38,-64.5"/>
<text xml:space="preserve" text-anchor="middle" x="451" y="-41.7" font-family="Times New Roman,serif" font-size="14.00">grad 0.0000</text>
</g>
<!-- 3091165797520&#45;&gt;3091165805008+ -->
<g id="edge9" class="edge">
<title>3091165797520&#45;&gt;3091165805008+</title>
<path fill="none" stroke="black" d="M491.84,-62.36C500.99,-63.98 509.87,-65.55 517.94,-66.98"/>
<polygon fill="black" stroke="black" points="517.17,-70.4 527.63,-68.7 518.39,-63.51 517.17,-70.4"/>
</g>
<!-- 3091165797520* -->
<g id="node5" class="node">
<title>3091165797520*</title>
<ellipse fill="none" stroke="black" cx="246.75" cy="-46.5" rx="27" ry="18"/>
<text xml:space="preserve" text-anchor="middle" x="246.75" y="-41.45" font-family="Times New Roman,serif" font-size="14.00">*</text>
</g>
<!-- 3091165797520*&#45;&gt;3091165797520 -->
<g id="edge2" class="edge">
<title>3091165797520*&#45;&gt;3091165797520</title>
<path fill="none" stroke="black" d="M273.97,-46.5C281.41,-46.5 290,-46.5 299.12,-46.5"/>
<polygon fill="black" stroke="black" points="298.95,-50 308.95,-46.5 298.95,-43 298.95,-50"/>
</g>
<!-- 3091165791904 -->
<g id="node6" class="node">
<title>3091165791904</title>
<polygon fill="none" stroke="black" points="0.38,-56.5 0.38,-92.5 183.38,-92.5 183.38,-56.5 0.38,-56.5"/>
<text xml:space="preserve" text-anchor="middle" x="11.38" y="-69.7" font-family="Times New Roman,serif" font-size="14.00">a</text>
<polyline fill="none" stroke="black" points="22.38,-57 22.38,-92.5"/>
<text xml:space="preserve" text-anchor="middle" x="62.25" y="-69.7" font-family="Times New Roman,serif" font-size="14.00">data 2.0000</text>
<polyline fill="none" stroke="black" points="102.12,-57 102.12,-92.5"/>
<text xml:space="preserve" text-anchor="middle" x="142.75" y="-69.7" font-family="Times New Roman,serif" font-size="14.00">grad 0.0000</text>
</g>
<!-- 3091165791904&#45;&gt;3091165797520* -->
<g id="edge4" class="edge">
<title>3091165791904&#45;&gt;3091165797520*</title>
<path fill="none" stroke="black" d="M183.57,-57.89C192.45,-56.26 201.07,-54.68 208.91,-53.25"/>
<polygon fill="black" stroke="black" points="209.47,-56.7 218.67,-51.46 208.21,-49.82 209.47,-56.7"/>
</g>
<!-- 3091151463104 -->
<g id="node7" class="node">
<title>3091151463104</title>
<polygon fill="none" stroke="black" points="0,-1.5 0,-37.5 183.75,-37.5 183.75,-1.5 0,-1.5"/>
<text xml:space="preserve" text-anchor="middle" x="11.38" y="-14.7" font-family="Times New Roman,serif" font-size="14.00">b</text>
<polyline fill="none" stroke="black" points="22.75,-2 22.75,-37.5"/>
<text xml:space="preserve" text-anchor="middle" x="62.62" y="-14.7" font-family="Times New Roman,serif" font-size="14.00">data 3.0000</text>
<polyline fill="none" stroke="black" points="102.5,-2 102.5,-37.5"/>
<text xml:space="preserve" text-anchor="middle" x="143.12" y="-14.7" font-family="Times New Roman,serif" font-size="14.00">grad 0.0000</text>
</g>
<!-- 3091151463104&#45;&gt;3091165797520* -->
<g id="edge8" class="edge">
<title>3091151463104&#45;&gt;3091165797520*</title>
<path fill="none" stroke="black" d="M184.01,-35.6C192.84,-37.16 201.4,-38.67 209.19,-40.04"/>
<polygon fill="black" stroke="black" points="208.42,-43.46 218.88,-41.75 209.64,-36.57 208.42,-43.46"/>
</g>
<!-- 3091165798096 -->
<g id="node8" class="node">
<title>3091165798096</title>
<polygon fill="none" stroke="black" points="623.25,-0.5 623.25,-36.5 804.75,-36.5 804.75,-0.5 623.25,-0.5"/>
<text xml:space="preserve" text-anchor="middle" x="633.5" y="-13.7" font-family="Times New Roman,serif" font-size="14.00">f</text>
<polyline fill="none" stroke="black" points="643.75,-1 643.75,-36.5"/>
<text xml:space="preserve" text-anchor="middle" x="683.62" y="-13.7" font-family="Times New Roman,serif" font-size="14.00">data 3.0000</text>
<polyline fill="none" stroke="black" points="723.5,-1 723.5,-36.5"/>
<text xml:space="preserve" text-anchor="middle" x="764.12" y="-13.7" font-family="Times New Roman,serif" font-size="14.00">grad 0.0000</text>
</g>
<!-- 3091165798096&#45;&gt;3091165805632* -->
<g id="edge5" class="edge">
<title>3091165798096&#45;&gt;3091165805632*</title>
<path fill="none" stroke="black" d="M804.99,-34.05C815.36,-35.84 825.45,-37.59 834.5,-39.15"/>
<polygon fill="black" stroke="black" points="833.8,-42.58 844.25,-40.83 834.99,-35.68 833.8,-42.58"/>
</g>
<!-- 3091165805008 -->
<g id="node9" class="node">
<title>3091165805008</title>
<polygon fill="none" stroke="black" points="618.75,-55.5 618.75,-91.5 809.25,-91.5 809.25,-55.5 618.75,-55.5"/>
<text xml:space="preserve" text-anchor="middle" x="630.12" y="-68.7" font-family="Times New Roman,serif" font-size="14.00">d</text>
<polyline fill="none" stroke="black" points="641.5,-56 641.5,-91.5"/>
<text xml:space="preserve" text-anchor="middle" x="684.75" y="-68.7" font-family="Times New Roman,serif" font-size="14.00">data 11.0000</text>
<polyline fill="none" stroke="black" points="728,-56 728,-91.5"/>
<text xml:space="preserve" text-anchor="middle" x="768.62" y="-68.7" font-family="Times New Roman,serif" font-size="14.00">grad 0.0000</text>
</g>
<!-- 3091165805008&#45;&gt;3091165805632* -->
<g id="edge6" class="edge">
<title>3091165805008&#45;&gt;3091165805632*</title>
<path fill="none" stroke="black" d="M809.5,-56.57C818.29,-54.99 826.79,-53.47 834.53,-52.08"/>
<polygon fill="black" stroke="black" points="834.91,-55.57 844.14,-50.36 833.68,-48.68 834.91,-55.57"/>
</g>
<!-- 3091165805008+&#45;&gt;3091165805008 -->
<g id="edge3" class="edge">
<title>3091165805008+&#45;&gt;3091165805008</title>
<path fill="none" stroke="black" d="M582.9,-73.5C590.05,-73.5 598.26,-73.5 607,-73.5"/>
<polygon fill="black" stroke="black" points="606.81,-77 616.81,-73.5 606.81,-70 606.81,-77"/>
</g>
</g>
</svg>
